<svg width="72" height="73" viewBox="0 0 72 73" fill="none" xmlns="http://www.w3.org/2000/svg">
<path opacity="0.3" d="M57.3661 54.4581L40.3594 44.5019C39.1602 43.7644 37.6339 44.6494 37.6339 46.0875V66H30.3661V46.0875C30.3661 44.6863 28.8398 43.7644 27.6406 44.5019L10.6339 54.4581L7 48.0788L24.0067 38.1225C25.2059 37.4219 25.2059 35.6519 24.0067 34.9144L7 24.9581L10.6339 18.5787L27.6406 28.535C28.8398 29.2356 30.3661 28.3506 30.3661 26.9125V7H37.6339V26.9125C37.6339 28.3137 39.1602 29.2356 40.3594 28.4981L57.3661 18.5419L61 24.9212L43.9933 34.8775C42.7941 35.5781 42.7941 37.3481 43.9933 38.0856L61 48.0419L57.3661 54.4581Z" fill="#AAFE4E"/>
<path d="M70.1432 43.435L58.0516 36.5L70.1432 29.565C71.9073 28.543 72.4953 26.3165 71.503 24.5645L64.1525 11.9355C63.6606 11.0981 62.8564 10.4868 61.914 10.2341C60.9716 9.98131 59.9669 10.1074 59.1174 10.585L47.0258 17.52V3.65C47.0258 1.6425 45.3719 0 43.3505 0H28.6495C26.6281 0 24.9742 1.6425 24.9742 3.65V17.52L12.8826 10.585C12.0331 10.1074 11.0284 9.98131 10.086 10.2341C9.14359 10.4868 8.33937 11.0981 7.8475 11.9355L0.496976 24.5645C-0.532097 26.3165 0.0926974 28.543 1.85682 29.565L13.9484 36.5L1.85682 43.435C0.0926974 44.457 -0.495345 46.6835 0.496976 48.4355L7.8475 61.0645C8.87657 62.8165 11.1185 63.4005 12.8826 62.415L24.9742 55.48V69.35C24.9742 71.3575 26.6281 73 28.6495 73H43.3505C45.3719 73 47.0258 71.3575 47.0258 69.35V55.48L59.1174 62.415C60.8815 63.437 63.1234 62.8165 64.1525 61.0645L71.503 48.4355C72.5321 46.6835 71.9073 44.457 70.1432 43.435ZM59.6319 54.2755L42.4317 44.4205C41.2189 43.6905 39.6753 44.5665 39.6753 45.99V65.7H32.3247V45.99C32.3247 44.603 30.7811 43.6905 29.5683 44.4205L12.3681 54.2755L8.69281 47.961L25.893 38.106C27.1059 37.4125 27.1059 35.6605 25.893 34.9305L8.69281 25.0755L12.3681 18.761L29.5683 28.616C30.7811 29.3095 32.3247 28.4335 32.3247 27.01V7.3H39.6753V27.01C39.6753 28.397 41.2189 29.3095 42.4317 28.5795L59.6319 18.7245L63.3072 25.039L46.107 34.894C44.8941 35.5875 44.8941 37.3395 46.107 38.0695L63.3072 47.9245L59.6319 54.2755Z" fill="#AAFE4E"/>
</svg>
