<svg width="72" height="54" viewBox="0 0 72 54" fill="none" xmlns="http://www.w3.org/2000/svg">
<path opacity="0.3" d="M5 49H5.248C9.526 41.4886 17.524 36.4286 26.7 36.4286C35.876 36.4286 43.874 41.4886 48.152 49H67V5H5V49ZM45.393 14.9L47.718 10.8143L52.275 13.4857V8.14286H56.925V13.4857L61.482 10.8143L63.807 14.9L59.25 17.5714L63.807 20.2429L61.482 24.3286L56.925 21.6571V27H52.275V21.6571L47.718 24.3286L45.393 20.2429L49.95 17.5714L45.393 14.9ZM26.7 14.4286C31.815 14.4286 36 18.6714 36 23.8571C36 29.0429 31.815 33.2857 26.7 33.2857C21.585 33.2857 17.4 29.0429 17.4 23.8571C17.4 18.6714 21.585 14.4286 26.7 14.4286Z" fill="#AAFE4F"/>
<path d="M27 33C31.95 33 36 28.95 36 24C36 19.05 31.95 15 27 15C22.05 15 18 19.05 18 24C18 28.95 22.05 33 27 33ZM27 21C28.62 21 30 22.38 30 24C30 25.62 28.62 27 27 27C25.38 27 24 25.62 24 24C24 22.38 25.38 21 27 21Z" fill="#AAFE4E"/>
<path d="M66 0H6C2.7 0 0 2.7 0 6V48C0 51.3 2.7 54 6 54H66C69.3 54 71.97 51.3 71.97 48L72 6C72 2.7 69.3 0 66 0ZM13.62 48C16.92 44.34 21.69 42 27 42C32.31 42 37.08 44.34 40.38 48H13.62ZM66 48H47.76C43.62 40.83 35.88 36 27 36C18.12 36 10.38 40.83 6.24 48H6V6H66V48Z" fill="#AAFE4E"/>
<path d="M48.2727 25.45L52.7273 22.9V28H57.2727V22.9L61.7273 25.45L64 21.55L59.5455 19L64 16.45L61.7273 12.55L57.2727 15.1V10H52.7273V15.1L48.2727 12.55L46 16.45L50.4545 19L46 21.55L48.2727 25.45Z" fill="#AAFE4E"/>
</svg>
