<svg width="32" height="24" viewBox="0 0 32 24" fill="none" xmlns="http://www.w3.org/2000/svg">
<path d="M23.3333 11.6667H24.6667V9.16667L26.8333 10.4L27.5 9.26667L25.3333 8L27.5 6.73333L26.8333 5.6L24.6667 6.83333V4.33333H23.3333V6.83333L21.1667 5.6L20.5 6.73333L22.6667 8L20.5 9.26667L21.1667 10.4L23.3333 9.16667V11.6667ZM2 24C1.46667 24 1 23.8 0.6 23.4C0.2 23 0 22.5333 0 22V2C0 1.46667 0.2 1 0.6 0.6C1 0.2 1.46667 0 2 0H30C30.5333 0 31 0.2 31.4 0.6C31.8 1 32 1.46667 32 2V22C32 22.5333 31.8 23 31.4 23.4C31 23.8 30.5333 24 30 24H2ZM19.7 22H30V2H2V22H2.23333C3.21111 20.4667 4.46111 19.2556 5.98333 18.3667C7.50556 17.4778 9.16667 17.0333 10.9667 17.0333C12.7667 17.0333 14.4278 17.4778 15.95 18.3667C17.4722 19.2556 18.7222 20.4667 19.7 22ZM10.9667 14.6667C12.0778 14.6667 13.0222 14.2778 13.8 13.5C14.5778 12.7222 14.9667 11.7778 14.9667 10.6667C14.9667 9.55556 14.5778 8.61111 13.8 7.83333C13.0222 7.05556 12.0778 6.66667 10.9667 6.66667C9.85556 6.66667 8.91111 7.05556 8.13333 7.83333C7.35556 8.61111 6.96667 9.55556 6.96667 10.6667C6.96667 11.7778 7.35556 12.7222 8.13333 13.5C8.91111 14.2778 9.85556 14.6667 10.9667 14.6667ZM4.76667 22H17.1667C16.3667 21.0667 15.4278 20.3389 14.35 19.8167C13.2722 19.2944 12.1444 19.0333 10.9667 19.0333C9.78889 19.0333 8.66111 19.2944 7.58333 19.8167C6.50556 20.3389 5.56667 21.0667 4.76667 22ZM10.9667 12.6667C10.4111 12.6667 9.93889 12.4722 9.55 12.0833C9.16111 11.6944 8.96667 11.2222 8.96667 10.6667C8.96667 10.0889 9.16111 9.61111 9.55 9.23333C9.93889 8.85556 10.4111 8.66667 10.9667 8.66667C11.5444 8.66667 12.0222 8.85556 12.4 9.23333C12.7778 9.61111 12.9667 10.0889 12.9667 10.6667C12.9667 11.2222 12.7778 11.6944 12.4 12.0833C12.0222 12.4722 11.5444 12.6667 10.9667 12.6667Z" fill="white"/>
</svg>
