<svg width="31" height="48" viewBox="0 0 31 48" fill="none" xmlns="http://www.w3.org/2000/svg">
<path d="M15.15 43.5C17.9833 40.8333 20.1917 38.3 21.775 35.9C23.3583 33.5 24.15 31.4667 24.15 29.8C24.15 27.2 23.275 25 21.525 23.2C19.775 21.4 17.65 20.5 15.15 20.5C12.65 20.5 10.525 21.4 8.775 23.2C7.025 25 6.15 27.2 6.15 29.8C6.15 31.4667 6.94167 33.5 8.525 35.9C10.1083 38.3 12.3167 40.8333 15.15 43.5ZM15.15 47.5C11.1167 44.0667 8.10833 40.8833 6.125 37.95C4.14167 35.0167 3.15 32.3 3.15 29.8C3.15 26.3667 4.31667 23.4583 6.65 21.075C8.98333 18.6917 11.8167 17.5 15.15 17.5C18.4833 17.5 21.3167 18.6917 23.65 21.075C25.9833 23.4583 27.15 26.3667 27.15 29.8C27.15 32.3 26.1583 35.0167 24.175 37.95C22.1917 40.8833 19.1833 44.0667 15.15 47.5ZM15.15 32C15.85 32 16.4417 31.7583 16.925 31.275C17.4083 30.7917 17.65 30.2 17.65 29.5C17.65 28.8 17.4083 28.2083 16.925 27.725C16.4417 27.2417 15.85 27 15.15 27C14.45 27 13.8583 27.2417 13.375 27.725C12.8917 28.2083 12.65 28.8 12.65 29.5C12.65 30.2 12.8917 30.7917 13.375 31.275C13.8583 31.7583 14.45 32 15.15 32ZM7.75 14.05L5.65 11.95C6.91667 10.65 8.36667 9.66667 10 9C11.6333 8.33333 13.3667 8 15.2 8C17 8 18.725 8.33333 20.375 9C22.025 9.66667 23.4833 10.65 24.75 11.95L22.65 14.05C21.6833 13.0833 20.55 12.3333 19.25 11.8C17.95 11.2667 16.6 11 15.2 11C13.8 11 12.45 11.2667 11.15 11.8C9.85 12.3333 8.71667 13.0833 7.75 14.05ZM2.15 8.4L0 6.35C2.03333 4.35 4.35833 2.79167 6.975 1.675C9.59167 0.558333 12.3333 0 15.2 0C18.0667 0 20.8167 0.558333 23.45 1.675C26.0833 2.79167 28.4167 4.35 30.45 6.35L28.3 8.45C26.5333 6.68333 24.525 5.33333 22.275 4.4C20.025 3.46667 17.6667 3 15.2 3C12.7333 3 10.375 3.45833 8.125 4.375C5.875 5.29167 3.88333 6.63333 2.15 8.4Z" fill="black"/>
</svg>
